<svg xmlns="http://www.w3.org/2000/svg" viewBox="0 12.699999809265137 167.5 36.39999771118164" data-asc="0.968" width="167.5" height="36.39999771118164"><defs/><g><g fill="#000000"><g transform="translate(0, 0)"><path d="M19.25 49.10Q15.10 49.10 11.57 47.77Q8.05 46.45 5.48 44Q2.90 41.55 1.45 38.22Q0 34.90 0 30.90Q0 26.90 1.45 23.57Q2.90 20.25 5.48 17.80Q8.05 15.35 11.57 14.02Q15.10 12.70 19.25 12.70Q24.10 12.70 27.93 14.40Q31.75 16.10 34.30 19.30L28.00 25.00Q26.30 23.00 24.28 21.95Q22.25 20.90 19.75 20.90Q17.60 20.90 15.80 21.60Q14 22.30 12.73 23.62Q11.45 24.95 10.73 26.80Q10 28.65 10 30.90Q10 33.15 10.73 35Q11.45 36.85 12.73 38.17Q14 39.50 15.80 40.20Q17.60 40.90 19.75 40.90Q22.25 40.90 24.28 39.85Q26.30 38.80 28.00 36.80L34.30 42.50Q31.75 45.65 27.93 47.38Q24.10 49.10 19.25 49.10ZM62.10 13.40L72 13.40L72 48.40L62.10 48.40L62.10 13.40M48.60 48.40L38.70 48.40L38.70 13.40L48.60 13.40L48.60 48.40M62.80 34.75L47.90 34.75L47.90 26.55L62.80 26.55L62.80 34.75ZM74.80 48.40L90.25 13.40L100 13.40L115.50 48.40L105.20 48.40L93.10 18.25L97 18.25L84.90 48.40L74.80 48.40M83.25 41.60L85.80 34.30L102.90 34.30L105.45 41.60L83.25 41.60ZM118.30 48.40L118.30 13.40L128.20 13.40L128.20 48.40L118.30 48.40ZM135.25 48.40L135.25 13.40L151.25 13.40Q156.05 13.40 159.53 14.95Q163 16.50 164.90 19.42Q166.80 22.35 166.80 26.35Q166.80 30.30 164.90 33.17Q163 36.05 159.53 37.57Q156.05 39.10 151.25 39.10L140.75 39.10L145.15 34.95L145.15 48.40L135.25 48.40M156.90 48.40L148.20 35.65L158.75 35.65L167.50 48.40L156.90 48.40M145.15 36L140.75 31.45L150.65 31.45Q153.75 31.45 155.28 30.10Q156.80 28.75 156.80 26.35Q156.80 23.90 155.28 22.55Q153.75 21.20 150.65 21.20L140.75 21.20L145.15 16.65L145.15 36Z"/></g><g transform="translate(0, 62.55)"><path d=""/></g></g></g></svg>